<svg xmlns="http://www.w3.org/2000/svg" version="1.1" xmlns:xlink="http://www.w3.org/1999/xlink" xmlns:svgjs="http://svgjs.com/svgjs" width="1500" height="560" preserveAspectRatio="none" viewBox="0 0 1500 560">
    <g mask="url(&quot;#SvgjsMask1053&quot;)" fill="none">
        <rect width="1500" height="560" x="0" y="0" fill="url(#SvgjsLinearGradient1054)"></rect>
        <path d="M1550 560L0 560 L0 364.8Q10.53 300.33, 75 310.85Q129.97 240.82, 200 295.79Q230.01 250.81, 275 280.82Q353.6 234.42, 400 313.02Q491.61 279.63, 525 371.23Q550.85 272.08, 650 297.93Q721.88 244.81, 775 316.7Q820.47 287.17, 850 332.64Q902.24 309.88, 925 362.12Q969.92 332.05, 1000 376.97Q1003.98 305.95, 1075 309.93Q1126.24 236.17, 1200 287.41Q1257.01 269.43, 1275 326.44Q1304.62 281.06, 1350 310.67Q1397.49 233.16, 1475 280.65Q1518.17 248.82, 1550 292z" fill="#182f5d"></path>
        <path d="M1525 560L0 560 L0 411.59Q47.11 333.69, 125 380.8Q181.75 312.55, 250 369.3Q336.93 331.23, 375 418.15Q379.45 347.6, 450 352.04Q492.77 319.81, 525 362.59Q597.94 360.53, 600 433.48Q655.78 364.26, 725 420.05Q751.1 371.15, 800 397.25Q883.5 355.75, 925 439.26Q950.47 389.73, 1000 415.2Q1046.85 337.05, 1125 383.9Q1185.49 369.39, 1200 429.88Q1228.58 333.46, 1325 362.04Q1375.1 337.13, 1400 387.23Q1488.01 350.24, 1525 438.25z" fill="#25467d"></path>
        <path d="M1525 560L0 560 L0 492.9Q56.54 424.44, 125 480.97Q203.1 434.07, 250 512.18Q287.22 424.4, 375 461.62Q425.91 387.53, 500 438.44Q597.59 411.02, 625 508.61Q652 460.61, 700 487.6Q748 410.6, 825 458.59Q846.99 405.58, 900 427.57Q992.77 395.34, 1025 488.11Q1069.82 407.93, 1150 452.74Q1197.57 375.31, 1275 422.88Q1360.38 383.25, 1400 468.63Q1449.97 393.61, 1525 443.58z" fill="#356cb1"></path>
        <path d="M1600 560L0 560 L0 571.03Q28.52 474.55, 125 503.08Q175.56 478.64, 200 529.2Q248.13 502.33, 275 550.45Q308.86 459.31, 400 493.17Q446.5 464.67, 475 511.17Q543.63 504.81, 550 573.44Q573.71 472.15, 675 495.87Q754.05 449.92, 800 528.98Q852.38 506.36, 875 558.73Q909.11 467.84, 1000 501.95Q1046.42 473.38, 1075 519.8Q1145.44 515.24, 1150 585.68Q1170.72 481.39, 1275 502.11Q1321.12 473.23, 1350 519.35Q1428.43 472.78, 1475 551.21Q1515.83 467.04, 1600 507.86z" fill="white"></path>
    </g>
    <defs>
        <mask id="SvgjsMask1053">
            <rect width="1500" height="560" fill="#ffffff"></rect>
        </mask>
        <linearGradient x1="15.67%" y1="-41.96%" x2="84.33%" y2="141.96%" gradientUnits="userSpaceOnUse" id="SvgjsLinearGradient1054">
            <stop stop-color="#0e2a47" offset="0"></stop>
            <stop stop-color="#00459e" offset="1"></stop>
        </linearGradient>
    </defs>
</svg>